<mxfile host="app.diagrams.net" modified="2020-10-10T10:32:03.350Z" agent="5.0 (Windows NT 10.0; Win64; x64) AppleWebKit/537.36 (KHTML, like Gecko) Chrome/83.0.4103.106 Safari/537.36" etag="YUQ-exBwUXEm_HFQk1uV" version="13.7.9" type="github">
  <diagram id="2RxeNBmGfMQW_nbP9R5V" name="Page-1">
    <mxGraphModel dx="825" dy="460" grid="1" gridSize="10" guides="1" tooltips="1" connect="1" arrows="1" fold="1" page="1" pageScale="1" pageWidth="827" pageHeight="1169" math="0" shadow="0">
      <root>
        <mxCell id="0" />
        <mxCell id="1" parent="0" />
        <mxCell id="9UOIXJfjhr6EfMHk_t2G-5" value="&lt;b&gt;............&lt;/b&gt;" style="rounded=0;whiteSpace=wrap;html=1;" vertex="1" parent="1">
          <mxGeometry x="40" y="740" width="210" height="220" as="geometry" />
        </mxCell>
        <mxCell id="9UOIXJfjhr6EfMHk_t2G-14" value="" style="edgeStyle=orthogonalEdgeStyle;rounded=0;orthogonalLoop=1;jettySize=auto;html=1;entryX=0;entryY=0.5;entryDx=0;entryDy=0;" edge="1" parent="1" source="9UOIXJfjhr6EfMHk_t2G-6" target="9UOIXJfjhr6EfMHk_t2G-10">
          <mxGeometry relative="1" as="geometry">
            <Array as="points">
              <mxPoint x="265" y="800" />
              <mxPoint x="265" y="780" />
            </Array>
          </mxGeometry>
        </mxCell>
        <mxCell id="9UOIXJfjhr6EfMHk_t2G-6" value="200M" style="rounded=0;whiteSpace=wrap;html=1;" vertex="1" parent="1">
          <mxGeometry x="80" y="770" width="140" height="60" as="geometry" />
        </mxCell>
        <mxCell id="9UOIXJfjhr6EfMHk_t2G-17" value="" style="edgeStyle=orthogonalEdgeStyle;rounded=0;orthogonalLoop=1;jettySize=auto;html=1;" edge="1" parent="1" source="9UOIXJfjhr6EfMHk_t2G-8" target="9UOIXJfjhr6EfMHk_t2G-16">
          <mxGeometry relative="1" as="geometry" />
        </mxCell>
        <mxCell id="9UOIXJfjhr6EfMHk_t2G-8" value="100M" style="rounded=0;whiteSpace=wrap;html=1;" vertex="1" parent="1">
          <mxGeometry x="80" y="870" width="140" height="50" as="geometry" />
        </mxCell>
        <mxCell id="9UOIXJfjhr6EfMHk_t2G-21" value="" style="edgeStyle=orthogonalEdgeStyle;rounded=0;orthogonalLoop=1;jettySize=auto;html=1;" edge="1" parent="1" source="9UOIXJfjhr6EfMHk_t2G-10" target="9UOIXJfjhr6EfMHk_t2G-20">
          <mxGeometry relative="1" as="geometry" />
        </mxCell>
        <mxCell id="9UOIXJfjhr6EfMHk_t2G-10" value="分片1" style="rounded=1;whiteSpace=wrap;html=1;" vertex="1" parent="1">
          <mxGeometry x="310" y="760" width="120" height="40" as="geometry" />
        </mxCell>
        <mxCell id="9UOIXJfjhr6EfMHk_t2G-24" value="" style="edgeStyle=orthogonalEdgeStyle;rounded=0;orthogonalLoop=1;jettySize=auto;html=1;" edge="1" parent="1" source="9UOIXJfjhr6EfMHk_t2G-13" target="9UOIXJfjhr6EfMHk_t2G-23">
          <mxGeometry relative="1" as="geometry" />
        </mxCell>
        <mxCell id="9UOIXJfjhr6EfMHk_t2G-13" value="分片2" style="rounded=1;whiteSpace=wrap;html=1;" vertex="1" parent="1">
          <mxGeometry x="310" y="820" width="120" height="40" as="geometry" />
        </mxCell>
        <mxCell id="9UOIXJfjhr6EfMHk_t2G-15" value="" style="endArrow=classic;html=1;entryX=0;entryY=0.5;entryDx=0;entryDy=0;" edge="1" parent="1" target="9UOIXJfjhr6EfMHk_t2G-13">
          <mxGeometry width="50" height="50" relative="1" as="geometry">
            <mxPoint x="220" y="820" as="sourcePoint" />
            <mxPoint x="440" y="810" as="targetPoint" />
            <Array as="points">
              <mxPoint x="220" y="820" />
            </Array>
          </mxGeometry>
        </mxCell>
        <mxCell id="9UOIXJfjhr6EfMHk_t2G-25" value="" style="edgeStyle=orthogonalEdgeStyle;rounded=0;orthogonalLoop=1;jettySize=auto;html=1;" edge="1" parent="1" source="9UOIXJfjhr6EfMHk_t2G-16" target="9UOIXJfjhr6EfMHk_t2G-22">
          <mxGeometry relative="1" as="geometry" />
        </mxCell>
        <mxCell id="9UOIXJfjhr6EfMHk_t2G-16" value="分片" style="rounded=1;whiteSpace=wrap;html=1;" vertex="1" parent="1">
          <mxGeometry x="310" y="900" width="120" height="40" as="geometry" />
        </mxCell>
        <mxCell id="9UOIXJfjhr6EfMHk_t2G-20" value="" style="rounded=0;whiteSpace=wrap;html=1;" vertex="1" parent="1">
          <mxGeometry x="530" y="680" width="180" height="100" as="geometry" />
        </mxCell>
        <mxCell id="9UOIXJfjhr6EfMHk_t2G-22" value="map task" style="rounded=0;whiteSpace=wrap;html=1;" vertex="1" parent="1">
          <mxGeometry x="480" y="900" width="120" height="40" as="geometry" />
        </mxCell>
        <mxCell id="9UOIXJfjhr6EfMHk_t2G-23" value="map task" style="rounded=0;whiteSpace=wrap;html=1;" vertex="1" parent="1">
          <mxGeometry x="480" y="820" width="120" height="40" as="geometry" />
        </mxCell>
        <mxCell id="9UOIXJfjhr6EfMHk_t2G-28" value="map task" style="text;html=1;strokeColor=none;fillColor=none;align=center;verticalAlign=middle;whiteSpace=wrap;rounded=0;" vertex="1" parent="1">
          <mxGeometry x="520" y="650" width="100" height="20" as="geometry" />
        </mxCell>
        <mxCell id="9UOIXJfjhr6EfMHk_t2G-29" value="1.通过InputFormat的&lt;br&gt;recordRead从输入的&lt;br&gt;inputSplit解析出一个个&lt;br&gt;key/value" style="text;html=1;align=center;verticalAlign=middle;resizable=0;points=[];autosize=1;" vertex="1" parent="1">
          <mxGeometry x="380" y="660" width="140" height="60" as="geometry" />
        </mxCell>
      </root>
    </mxGraphModel>
  </diagram>
</mxfile>
